# xmcd
#
# Track frame offsets:
#	150
#	13620
#	25660
#	37305
#	48500
#	59965
#	72520
#	84990
#	97595
#	108595
#	122050
#	132995
#	145465
#	157535
#	170560
#	188450
#	196980
#	207760
#	224140
#	238375
#	250865
#	261370
#
# Disc length: 3618 seconds
#
# Revision: 0
# Processed by: cddbd v1.5.1PL0 Copyright (c) Steve Scherf et al.
# Submitted via: audiograbber 1.83.01
#
DISCID=480e2016
DTITLE=Bill Anderson - Love Is A Sometimes Thing
DYEAR=1900
DGENRE=Country
TTITLE0=Love Is A Sometimes Thing
TTITLE1=Honey Come Back
TTITLE2=You Can Change My World
TTITLE3=I Don't Have Any Place To Go
TTITLE4=Daddy What If
TTITLE5=You And Your Sweet Love
TTITLE6=Not Really Living At All
TTITLE7=The Shirt
TTITLE8=I'll Live For You
TTITLE9=My Elusive Dreams
TTITLE10=And I'm Still Missing You
TTITLE11=If You Can Live Without It
TTITLE12=Look How I Love You
TTITLE13=Home And Things
TTITLE14=Baby's Blue Again
TTITLE15=Number One
TTITLE16=Let's Fall Apart
TTITLE17=The Corner Of My Life
TTITLE18=Gonna Shine It On Again
TTITLE19=World Of Make Believe
TTITLE20=I Can Mend It
TTITLE21=Have You Seen Her
EXTD=
EXTT0=
EXTT1=
EXTT2=
EXTT3=
EXTT4=
EXTT5=
EXTT6=
EXTT7=
EXTT8=
EXTT9=
EXTT10=
EXTT11=
EXTT12=
EXTT13=
EXTT14=
EXTT15=
EXTT16=
EXTT17=
EXTT18=
EXTT19=
EXTT20=
EXTT21=
PLAYORDER=
